<svg xmlns="http://www.w3.org/2000/svg" viewBox="0 0 39.33 39.33"><defs><style>.cls-1{fill:#333;}.cls-2{fill:none;stroke:#333;stroke-miterlimit:10;}</style></defs><title>Ресурс 1</title><g id="Слой_2" data-name="Слой 2"><g id="Capa_1" data-name="Capa 1"><path class="cls-1" d="M19.67,9.59a7.08,7.08,0,0,0-6,10.81l5.62,9.07a.61.61,0,0,0,.5.28h0a.62.62,0,0,0,.5-.29l5.48-9.16a7,7,0,0,0,1-3.63A7.09,7.09,0,0,0,19.67,9.59ZM24.74,19.7l-5,8.32-5.11-8.24a5.91,5.91,0,1,1,10.94-3.11A6,6,0,0,1,24.74,19.7Z"/><path class="cls-1" d="M19.67,13.13a3.55,3.55,0,1,0,3.54,3.54A3.55,3.55,0,0,0,19.67,13.13Zm0,5.91A2.37,2.37,0,1,1,22,16.67,2.38,2.38,0,0,1,19.67,19Z"/><circle class="cls-2" cx="19.67" cy="19.67" r="19.17"/></g></g></svg>