<svg xmlns="http://www.w3.org/2000/svg" viewBox="0 0 39.33 39.33"><defs><style>.cls-1{fill:none;stroke:#333;stroke-miterlimit:10;}.cls-2{fill:#333;}</style></defs><title>Ресурс 2</title><g id="Слой_2" data-name="Слой 2"><g id="Capa_1" data-name="Capa 1"><circle class="cls-1" cx="19.67" cy="19.67" r="19.17"/><path class="cls-2" d="M12.11,26.86H11a.36.36,0,0,0-.72,0H9.23a.36.36,0,0,0-.36.36V30.1a.36.36,0,0,0,.36.36h2.88a.36.36,0,0,0,.36-.36V27.22A.36.36,0,0,0,12.11,26.86Z"/><path class="cls-2" d="M30.1,8.87H27.22a.36.36,0,0,0-.36.36v2.88a.36.36,0,0,0,.36.36H30.1a.36.36,0,0,0,.36-.36V9.23A.36.36,0,0,0,30.1,8.87Z"/><path class="cls-2" d="M30.1,26.86H29a.36.36,0,0,0-.72,0H27.22a.36.36,0,0,0-.36.36V30.1a.36.36,0,0,0,.36.36H30.1a.36.36,0,0,0,.36-.36V27.22A.36.36,0,0,0,30.1,26.86Z"/><path class="cls-2" d="M14.27,28.3h-.72a.36.36,0,1,0,0,.72h.72a.36.36,0,0,0,0-.72Z"/><path class="cls-2" d="M10.67,15.35a.36.36,0,0,0-.36.36v.72a.36.36,0,0,0,.72,0v-.72A.36.36,0,0,0,10.67,15.35Z"/><path class="cls-2" d="M12.47,10.31V9.23a.36.36,0,0,0-.36-.36H9.23a.36.36,0,0,0-.36.36v2.88a.36.36,0,0,0,.36.36h2.88a.36.36,0,0,0,.36-.36V11a.36.36,0,0,0,0-.72Z"/><path class="cls-2" d="M16.79,28.3H15.71a.36.36,0,1,0,0,.72h1.08a.36.36,0,0,0,0-.72Z"/><path class="cls-2" d="M15,10.31H13.91a.36.36,0,0,0,0,.72H15a.36.36,0,0,0,0-.72Z"/><path class="cls-2" d="M17.15,10.31h-.72a.36.36,0,0,0,0,.72h.72a.36.36,0,0,0,0-.72Z"/><path class="cls-2" d="M10.67,17.51a.36.36,0,0,0-.36.36v.72a.36.36,0,0,0,.72,0v-.72A.36.36,0,0,0,10.67,17.51Z"/><path class="cls-2" d="M10.67,19.67a.36.36,0,0,0-.36.35V21.1a.36.36,0,0,0,.72,0V20A.36.36,0,0,0,10.67,19.67Z"/><path class="cls-2" d="M10.67,24.34a.36.36,0,0,0-.36.36v.72a.36.36,0,0,0,.72,0V24.7A.36.36,0,0,0,10.67,24.34Z"/><path class="cls-2" d="M10.67,12.83a.36.36,0,0,0-.36.36v1.08a.36.36,0,0,0,.72,0V13.19A.36.36,0,0,0,10.67,12.83Z"/><path class="cls-2" d="M10.67,22.18a.36.36,0,0,0-.36.36v.72a.36.36,0,0,0,.72,0v-.72A.36.36,0,0,0,10.67,22.18Z"/><path class="cls-2" d="M21.1,28.3h-.72a.36.36,0,0,0,0,.72h.72a.36.36,0,0,0,0-.72Z"/><path class="cls-2" d="M28.66,17.51a.36.36,0,0,0-.36.36v.72a.36.36,0,0,0,.72,0v-.72A.36.36,0,0,0,28.66,17.51Z"/><path class="cls-2" d="M28.66,12.83a.36.36,0,0,0-.36.36v1.08a.36.36,0,1,0,.72,0V13.19A.36.36,0,0,0,28.66,12.83Z"/><path class="cls-2" d="M28.66,19.67a.36.36,0,0,0-.36.35V21.1a.36.36,0,0,0,.72,0V20A.36.36,0,0,0,28.66,19.67Z"/><path class="cls-2" d="M28.66,15.35a.36.36,0,0,0-.36.36v.72a.36.36,0,0,0,.72,0v-.72A.36.36,0,0,0,28.66,15.35Z"/><path class="cls-2" d="M28.66,24.34a.36.36,0,0,0-.36.36v.72a.36.36,0,0,0,.72,0V24.7A.36.36,0,0,0,28.66,24.34Z"/><path class="cls-2" d="M28.66,22.18a.36.36,0,0,0-.36.36v.72a.36.36,0,0,0,.72,0v-.72A.36.36,0,0,0,28.66,22.18Z"/><path class="cls-2" d="M26.14,10.31h-.72a.36.36,0,0,0,0,.72h.72a.36.36,0,0,0,0-.72Z"/><path class="cls-2" d="M21.82,10.31H20.74a.36.36,0,0,0,0,.72h1.08a.36.36,0,0,0,0-.72Z"/><path class="cls-2" d="M19.31,10.31h-.72a.36.36,0,0,0,0,.72h.72a.36.36,0,0,0,0-.72Z"/><path class="cls-2" d="M23.62,28.3H22.54a.36.36,0,0,0,0,.72h1.08a.36.36,0,0,0,0-.72Z"/><path class="cls-2" d="M24,10.31h-.72a.36.36,0,0,0,0,.72H24a.36.36,0,0,0,0-.72Z"/><path class="cls-2" d="M19,28.3h-.72a.36.36,0,0,0,0,.72H19a.36.36,0,0,0,0-.72Z"/><path class="cls-2" d="M25.78,28.3h-.72a.36.36,0,0,0,0,.72h.72a.36.36,0,0,0,0-.72Z"/></g></g></svg>