<svg xmlns="http://www.w3.org/2000/svg" viewBox="0 0 39.33 39.33"><defs><style>.cls-1{fill:none;stroke:#333;stroke-miterlimit:10;}.cls-2{fill:#333;}</style></defs><g id="Слой_2" data-name="Слой 2"><g id="Capa_1" data-name="Capa 1"><circle class="cls-1" cx="19.67" cy="19.67" r="19.17"/><circle class="cls-2" cx="23.62" cy="18.27" r="0.61"/><path class="cls-2" d="M25,13.09h-.79v-.61a.6.6,0,0,0-.61-.6.61.61,0,0,0-.61.6v.61H20.24v-.61a.61.61,0,0,0-1.21,0v.61H16.29v-.61a.61.61,0,0,0-1.22,0v.61h-.76a2.43,2.43,0,0,0-2.43,2.44V25a2.44,2.44,0,0,0,2.43,2.44H19a.61.61,0,0,0,.6-.61.6.6,0,0,0-.6-.61H14.31A1.22,1.22,0,0,1,13.09,25V15.53a1.22,1.22,0,0,1,1.22-1.22h.76v.61a.61.61,0,1,0,1.22,0v-.61H19v.61a.61.61,0,1,0,1.21,0v-.61H23v.61a.62.62,0,0,0,.61.61.61.61,0,0,0,.61-.61v-.61H25a1.22,1.22,0,0,1,1.22,1.22V19a.6.6,0,0,0,.61.6.61.61,0,0,0,.61-.6V15.53A2.44,2.44,0,0,0,25,13.09Z"/><path class="cls-2" d="M23.77,20.09a3.69,3.69,0,1,0,3.69,3.68A3.68,3.68,0,0,0,23.77,20.09Zm0,6.15a2.47,2.47,0,1,1,2.47-2.47A2.47,2.47,0,0,1,23.77,26.24Z"/><path class="cls-2" d="M24.66,23.16h-.28v-.63a.61.61,0,0,0-.61-.61.61.61,0,0,0-.61.61v1.24a.61.61,0,0,0,.61.61h.89a.6.6,0,0,0,.6-.61A.61.61,0,0,0,24.66,23.16Z"/><circle class="cls-2" cx="20.97" cy="18.27" r="0.61"/><circle class="cls-2" cx="18.33" cy="20.91" r="0.61"/><circle class="cls-2" cx="15.68" cy="18.27" r="0.61"/><circle class="cls-2" cx="15.68" cy="20.91" r="0.61"/><circle class="cls-2" cx="15.68" cy="23.56" r="0.61"/><circle class="cls-2" cx="18.33" cy="23.56" r="0.61"/><circle class="cls-2" cx="18.33" cy="18.27" r="0.61"/></g></g></svg>
