<svg xmlns="http://www.w3.org/2000/svg" viewBox="0 0 39.33 39.33"><defs><style>.cls-1{fill:none;stroke:#333;stroke-miterlimit:10;}.cls-2{fill:#333;}</style></defs><title>Ресурс 4</title><g id="Слой_2" data-name="Слой 2"><g id="Capa_1" data-name="Capa 1"><circle class="cls-1" cx="19.67" cy="19.67" r="19.17"/><path class="cls-2" d="M18.44,11.71H12.32a.61.61,0,0,0-.61.61v6.12a.61.61,0,0,0,.61.61h6.12a.61.61,0,0,0,.61-.61V12.32A.61.61,0,0,0,18.44,11.71Zm-.61,6.12h-4.9v-4.9h4.9v4.9Z"/><path class="cls-2" d="M27,11.71H20.89a.61.61,0,0,0-.61.61v6.12a.61.61,0,0,0,.61.61H27a.61.61,0,0,0,.61-.61V12.32A.61.61,0,0,0,27,11.71Zm-.61,6.12H21.5v-4.9h4.9Z"/><path class="cls-2" d="M18.44,20.28H12.32a.61.61,0,0,0-.61.61V27a.61.61,0,0,0,.61.61h6.12a.61.61,0,0,0,.61-.61V20.89A.61.61,0,0,0,18.44,20.28Zm-.61,6.12h-4.9V21.5h4.9v4.9Z"/><path class="cls-2" d="M27,20.28H20.89a.61.61,0,0,0-.61.61V27a.61.61,0,0,0,.61.61H27a.61.61,0,0,0,.61-.61V20.89A.61.61,0,0,0,27,20.28ZM26.4,26.4H21.5V21.5h4.9Z"/></g></g></svg>